<?xml version="1.0" standalone="no"?>
<!DOCTYPE svg PUBLIC "-//W3C//DTD SVG 20010904//EN"
 "http://www.w3.org/TR/2001/REC-SVG-20010904/DTD/svg10.dtd">
<svg version="1.0" xmlns="http://www.w3.org/2000/svg"
 width="1080.000000pt" height="1080.000000pt" viewBox="0 0 1080.000000 1080.000000"
 preserveAspectRatio="xMidYMid meet">

<g transform="translate(0.000000,1080.000000) scale(0.100000,-0.100000)"
fill="#000000" stroke="none">
<path d="M0 5400 l0 -5400 5400 0 5400 0 0 5400 0 5400 -5400 0 -5400 0 0
-5400z m8162 2643 c41 -20 58 -52 55 -103 -2 -25 -7 -52 -11 -59 -7 -10 -5
-12 5 -7 8 4 6 1 -3 -7 -10 -8 -15 -17 -11 -20 3 -4 1 -13 -5 -20 -7 -8 -9
-17 -5 -20 3 -4 1 -7 -6 -7 -7 0 -10 -4 -7 -9 4 -5 -3 -7 -14 -4 -11 3 -20 1
-20 -5 0 -6 -12 -9 -27 -7 -16 2 -33 4 -40 4 -40 3 -121 117 -137 194 -10 42
3 77 28 77 11 0 27 4 35 9 19 12 130 1 163 -16z m-3004 -4180 c-10 -2 -28 -2
-40 0 -13 2 -5 4 17 4 22 1 32 -1 23 -4z m145 0 c-7 -2 -21 -2 -30 0 -10 3 -4
5 12 5 17 0 24 -2 18 -5z m65 0 c-10 -2 -26 -2 -35 0 -10 3 -2 5 17 5 19 0 27
-2 18 -5z m65 0 c-7 -2 -19 -2 -25 0 -7 3 -2 5 12 5 14 0 19 -2 13 -5z m-20
-350 c-7 -2 -19 -2 -25 0 -7 3 -2 5 12 5 14 0 19 -2 13 -5z m102 -2321 c25
-92 48 -174 51 -183 3 -11 -67 -102 -198 -259 -112 -134 -211 -253 -220 -264
-17 -21 -17 -21 -25 -1 -15 37 -8 198 17 378 l24 177 119 153 c66 83 131 165
145 180 32 34 25 49 87 -181z"/>
</g>
</svg>
