<svg width="59" height="41" viewBox="0 0 59 41" fill="none" xmlns="http://www.w3.org/2000/svg">
<path d="M20.5595 40.8538C23.5954 40.9513 26.8517 41 30.3283 41V0.0666504C26.8517 0.0666504 23.5954 0.115381 20.5595 0.212841C17.9643 0.310302 15.4053 0.443821 12.8826 0.613402C10.3618 0.784932 8.53832 1.01689 7.4121 1.30927C6.13898 1.65038 5.03724 2.28387 4.10689 3.20975C3.17653 4.13562 2.53997 5.23205 2.19721 6.49903C1.90341 7.61982 1.67131 8.98427 1.50091 10.5924C1.32855 12.2005 1.1934 13.7355 1.09547 15.1974C0.997536 16.9517 0.94857 18.7303 0.94857 20.5333C0.94857 22.3363 0.997536 24.115 1.09547 25.8693C1.1934 27.3312 1.32855 28.8662 1.50091 30.4743C1.67131 32.0824 1.90341 33.4468 2.19721 34.5676C2.53997 35.8346 3.17653 36.931 4.10689 37.8569C5.03724 38.7828 6.13898 39.4163 7.4121 39.7574C8.53832 40.0498 10.3618 40.2807 12.8826 40.4503C15.4053 40.6218 17.9643 40.7563 20.5595 40.8538Z" fill="white"/>
<path d="M38.9643 40.8538C35.9284 40.9513 32.6721 41 29.1955 41V0.0666504C32.6721 0.0666504 35.9284 0.115381 38.9643 0.212841C41.5595 0.310302 44.1185 0.443821 46.6412 0.613402C49.162 0.784932 50.9855 1.01689 52.1117 1.30927C53.3848 1.65038 54.4866 2.28387 55.4169 3.20975C56.3473 4.13562 56.9838 5.23205 57.3266 6.49903C57.6204 7.61982 57.8525 8.98427 58.0229 10.5924C58.1952 12.2005 58.3304 13.7355 58.4283 15.1974C58.5263 16.9517 58.5752 18.7303 58.5752 20.5333C58.5752 22.3363 58.5263 24.115 58.4283 25.8693C58.3304 27.3312 58.1952 28.8662 58.0229 30.4743C57.8525 32.0824 57.6204 33.4468 57.3266 34.5676C56.9838 35.8346 56.3473 36.931 55.4169 37.8569C54.4866 38.7828 53.3848 39.4163 52.1117 39.7574C50.9855 40.0498 49.162 40.2807 46.6412 40.4503C44.1185 40.6218 41.5595 40.7563 38.9643 40.8538Z" fill="white"/>
<path d="M23 8.99994V32.5999L43.5524 20.7999L23 8.99994Z" fill="black"/>
</svg>
